# xmcd
#
# Track frame offsets:
#	150
#	9333
#	24838
#	40283
#	52042
#	65907
#	83010
#	95835
#	112560
#	125535
#	140820
#	153125
#	168710
#	187110
#	196938
#	221280
#	232245
#
# Disc length: 3266 seconds
#
# Revision: 1
# Processed by: cddbd v1.5.2PL0 Copyright (c) Steve Scherf et al.
# Submitted via: audiograbber 1.83.01
#
DISCID=eb0cc011
DTITLE=Jack Dialesandro, Bob Frank, Kevin Richards - One Night At The Spider
DYEAR=1997
DGENRE=Blues
TTITLE0=Let Me Ride Your Mule
TTITLE1=Early Morning Blues
TTITLE2=Riverside Rag
TTITLE3=Kansas City Blues
TTITLE4=Dealing With The Devil
TTITLE5=Eight Women A Week
TTITLE6=Franklin Blues
TTITLE7=Cash On The Barrelhead
TTITLE8=No Matter How She Done It
TTITLE9=Black And Tan
TTITLE10=Shuffle Rag
TTITLE11=Can't Get That Stuff No More
TTITLE12=Sitting On Top Of The World
TTITLE13=Too Tight Rag
TTITLE14=Traveling Man
TTITLE15=Cincinnati Flow Rag
TTITLE16=John Henry
EXTD=Kevin's Guitar: Left Channel\nJack's Guitar: Right Channel\n(C) 1997 By Ja
EXTD=ck Dialesandro, Kevin Richards and Bob Frank\nBroke'n Hungry Records\n3473 F
EXTD=airmount Boulevard - Cleveland Heights - OHIO 44118\n
EXTT0=
EXTT1=
EXTT2=
EXTT3=
EXTT4=
EXTT5=
EXTT6=
EXTT7=
EXTT8=
EXTT9=
EXTT10=
EXTT11=
EXTT12=
EXTT13=
EXTT14=
EXTT15=
EXTT16=
PLAYORDER=
